<svg width="71" height="71" viewBox="0 0 71 71" fill="none" xmlns="http://www.w3.org/2000/svg">
<path d="M70.773 31.4924C71.6795 39.4709 69.8543 47.5211 65.5955 54.3285C61.3366 61.1359 54.8957 66.2983 47.3243 68.9729C39.753 71.6475 31.4986 71.6762 23.9088 69.0544C16.3191 66.4325 9.8424 61.315 5.53628 54.5374C1.23016 47.7598 -0.651001 39.7226 0.199959 31.7379C1.05092 23.7533 4.58372 16.293 10.2215 10.5752C15.8594 4.85739 23.2691 1.21984 31.241 0.256469C39.2128 -0.706898 47.2758 1.06084 54.1133 5.27105L49.8613 12.1766C44.5857 8.92819 38.3646 7.56427 32.2139 8.30757C26.0632 9.05086 20.3461 11.8574 15.9962 16.2691C11.6463 20.6807 8.92052 26.4367 8.26396 32.5974C7.60739 38.758 9.05882 44.9592 12.3812 50.1885C15.7037 55.4178 20.7008 59.3662 26.5567 61.3892C32.4127 63.4121 38.7815 63.3899 44.6232 61.3263C50.4649 59.2627 55.4344 55.2796 58.7204 50.0273C62.0064 44.775 63.4146 38.5638 62.7152 32.4079L70.773 31.4924Z" fill="#2988BC"/>
<path d="M21.6945 31.5556H51.2778V42.8147C51.2778 44.8835 50.9552 46.609 50.3099 47.9912C49.6647 49.3734 48.7691 50.4124 47.6232 51.108C46.4868 51.8037 45.1772 52.1516 43.6941 52.1516C42.5386 52.1516 41.5226 51.9319 40.6463 51.4925C39.7796 51.0531 39.0669 50.449 38.5084 49.6801C37.9595 48.9203 37.5695 48.0507 37.3384 47.0712H37.0495C37.0013 48.1422 36.6835 49.1446 36.0961 50.0782C35.5087 51.0211 34.6853 51.7854 33.626 52.3713C32.5763 52.9571 31.3244 53.25 29.8703 53.25C28.3006 53.25 26.8995 52.8793 25.6668 52.1378C24.4438 51.4055 23.476 50.3208 22.7634 48.8837C22.0508 47.4465 21.6945 45.6753 21.6945 43.5699V31.5556ZM26.808 37.501V42.3479C26.808 44.0047 27.1402 45.213 27.8047 45.9728C28.4788 46.7325 29.3744 47.1124 30.4914 47.1124C31.31 47.1124 32.0322 46.9248 32.6582 46.5495C33.2841 46.1742 33.7753 45.6387 34.1316 44.943C34.4879 44.2564 34.666 43.4372 34.666 42.4852V37.501H26.808ZM38.8984 37.501V41.9085C38.8984 42.7232 39.0477 43.4463 39.3462 44.0779C39.6544 44.7187 40.0877 45.2222 40.6463 45.5883C41.2048 45.9636 41.8741 46.1513 42.6541 46.1513C43.723 46.1513 44.5849 45.7897 45.2398 45.0666C45.8946 44.3526 46.222 43.3365 46.222 42.0183V37.501H38.8984Z" fill="#124460"/>
</svg>
