<svg width="62" height="62" viewBox="0 0 62 62" fill="none" xmlns="http://www.w3.org/2000/svg">
<path d="M31 7.3625C35.495 7.3625 39.1375 11.005 39.1375 15.5C39.1375 19.995 35.495 23.6375 31 23.6375C26.505 23.6375 22.8625 19.995 22.8625 15.5C22.8625 11.005 26.505 7.3625 31 7.3625ZM31 42.2375C42.5088 42.2375 54.6375 47.895 54.6375 50.375V54.6375H7.3625V50.375C7.3625 47.895 19.4912 42.2375 31 42.2375ZM31 0C22.4363 0 15.5 6.93625 15.5 15.5C15.5 24.0637 22.4363 31 31 31C39.5638 31 46.5 24.0637 46.5 15.5C46.5 6.93625 39.5638 0 31 0ZM31 34.875C20.6537 34.875 0 40.0675 0 50.375V58.125C0 60.2562 1.74375 62 3.875 62H58.125C60.2562 62 62 60.2562 62 58.125V50.375C62 40.0675 41.3462 34.875 31 34.875Z" fill="white"/>
</svg>
