<svg width="79" height="77" viewBox="0 0 79 77" fill="none" xmlns="http://www.w3.org/2000/svg">
<path d="M13.64 21.2297H64.8465C68.7715 21.2297 72.0327 24.256 72.3256 28.1701L75.1894 66.4404C75.5149 70.7908 72.0729 74.5 67.7103 74.5H10.7763C6.41362 74.5 2.97162 70.7908 3.29717 66.4404L6.16093 28.1701C6.45382 24.256 9.715 21.2297 13.64 21.2297Z" stroke="white" stroke-width="5"/>
<path fill-rule="evenodd" clip-rule="evenodd" d="M53.2393 19.3244C52.6024 16.1459 51.254 12.0632 49.2499 9.62067C46.4187 6.17017 42.79 4.45946 39.2433 4.45946C35.6965 4.45946 32.0678 6.17017 29.2366 9.62067C27.1819 12.1249 25.7264 16.2192 25.0174 19.3243L28.2389 19.3244C28.8682 17.7921 29.7679 15.2096 30.6686 14.1118C32.7655 11.5562 35.8206 9.89271 39.2433 9.89271C42.6659 9.89271 45.721 11.5562 47.8179 14.1118C48.7131 15.2028 49.5079 16.4208 50.0509 17.8901C50.0628 17.9222 50.0745 19.2922 50.086 19.3244H53.2393ZM57.7709 17.9865C57.0784 13.7509 55.3672 10.0458 52.6974 6.79196C49.1291 2.44314 44.2895 0 39.2433 0C34.197 0 29.3574 2.44314 25.7891 6.79196C23.1193 10.0458 21.2417 13.7509 20.4653 17.9865C20.2041 19.4119 20.0676 20.8974 20.0676 22.446L31.8437 22.446C31.8437 20.1023 32.7563 18.5977 34.1161 16.9405C35.4759 15.2832 37.3202 14.3522 39.2433 14.3522C41.1663 14.3522 43.0106 15.2832 44.3704 16.9405C45.7302 18.5977 46.3455 20.1023 46.3455 22.446H58.1217C58.1217 20.8974 58.004 19.4119 57.7709 17.9865Z" fill="white"/>
</svg>
